<?xml version="1.0" standalone="no"?>
<!DOCTYPE svg PUBLIC "-//W3C//DTD SVG 20010904//EN"
 "http://www.w3.org/TR/2001/REC-SVG-20010904/DTD/svg10.dtd">
<svg version="1.0" xmlns="http://www.w3.org/2000/svg"
 width="500.000000pt" height="500.000000pt" viewBox="0 0 500.000000 500.000000"
 preserveAspectRatio="xMidYMid meet">
<metadata>
Created by potrace 1.14, written by Peter Selinger 2001-2017
</metadata>
<g transform="translate(0.000000,500.000000) scale(0.100000,-0.100000)"
fill="#000000" stroke="none">
<path d="M2350 4536 c-122 -36 -197 -80 -280 -165 -84 -85 -129 -166 -161
-291 -47 -179 9 -393 139 -539 l49 -55 -47 -23 c-52 -26 -75 -59 -68 -97 5
-22 0 -27 -38 -42 -24 -9 -44 -21 -44 -26 0 -5 -6 -6 -12 -2 -7 4 -10 4 -6 -1
4 -4 2 -15 -4 -24 -7 -9 -8 -13 -4 -9 5 4 15 3 23 -3 9 -9 13 -8 13 0 0 6 -5
11 -11 11 -5 0 -8 4 -5 9 7 11 76 -8 76 -20 0 -5 6 -6 13 -4 6 3 26 1 42 -4
l30 -9 -40 -3 c-60 -3 -99 1 -143 15 -20 7 -21 10 -10 24 8 11 4 10 -11 -3
-40 -34 -54 -71 -41 -109 6 -18 21 -43 33 -54 31 -29 143 -78 194 -85 77 -11
93 -18 94 -41 7 -180 7 -302 -1 -346 -11 -66 -17 -99 -25 -165 -7 -50 -26
-123 -72 -270 -14 -44 -27 -89 -29 -100 -12 -56 -34 -111 -79 -195 -47 -87
-53 -94 -102 -116 -66 -30 -130 -87 -138 -124 -7 -33 14 -81 46 -104 20 -14
26 -46 20 -117 -1 -14 -111 -99 -127 -99 -16 0 -155 -108 -198 -154 -79 -83
-100 -160 -71 -263 l17 -59 -45 -45 c-76 -76 -95 -142 -61 -214 67 -143 404
-282 774 -321 25 -3 56 -7 70 -10 122 -21 606 -22 730 0 14 3 52 7 85 11 32 4
62 8 65 10 3 1 30 6 60 9 117 14 307 73 425 132 139 70 209 141 220 226 6 47
-36 130 -90 174 l-44 36 15 36 c24 58 20 134 -10 195 -26 53 -94 127 -151 162
-111 70 -197 130 -204 144 -11 20 -17 113 -8 127 3 6 12 29 21 53 28 81 2 130
-94 177 -77 39 -80 42 -159 285 -92 283 -140 557 -138 793 l2 150 88 17 c265
52 344 187 165 283 -55 30 -57 33 -56 69 1 39 -27 81 -64 93 -26 8 -23 23 11
53 16 14 51 61 79 104 94 145 121 308 77 477 -29 110 -102 229 -188 306 -62
54 -188 118 -274 138 -96 22 -233 18 -323 -8z m55 -327 c32 -15 35 -23 23 -84
-22 -115 -26 -187 -17 -344 l4 -84 -30 -9 c-43 -13 -165 -12 -177 0 -16 16
-46 208 -42 266 4 58 24 139 54 218 l21 58 67 -3 c37 -2 81 -10 97 -18z m555
-786 c3 -2 -3 -11 -14 -18 -20 -15 -168 -16 -182 -2 -4 4 -1 7 7 8 29 2 70 10
92 19 21 9 86 4 97 -7z m-846 -7 l27 -14 -31 -4 c-16 -3 -30 -1 -30 4 0 5 -7
5 -16 0 -9 -5 -25 -7 -36 -4 -14 3 -16 7 -7 18 15 18 59 18 93 0z m344 -48
c21 -28 24 -59 6 -79 -15 -17 -31 -19 -147 -19 -107 0 -134 3 -149 17 -21 19
-23 45 -6 73 12 18 24 20 149 20 97 0 139 -4 147 -12z m640 -91 c42 -33 -11
-54 -140 -55 -95 -1 -117 11 -40 22 26 4 67 17 92 30 44 22 62 23 88 3z m-608
-87 c25 -25 25 -41 1 -71 -18 -23 -21 -23 -202 -21 -153 2 -186 5 -201 19 -22
20 -23 51 -1 75 14 16 35 18 200 18 170 0 184 -1 203 -20z m-76 -221 c-1 -18
-5 -65 -8 -104 -8 -99 -8 -296 1 -465 4 -80 6 -192 6 -250 -3 -358 -5 -449
-12 -480 l-7 -35 -112 -1 c-97 -1 -114 2 -122 16 -5 10 -7 19 -5 22 3 2 7 24
10 49 3 24 7 55 10 69 2 14 7 50 10 80 4 30 15 111 25 180 22 143 27 191 46
395 3 39 10 99 14 135 7 63 4 383 -5 407 -4 12 43 19 115 18 33 -1 35 -3 34
-36z m-498 -1304 c57 -19 114 -35 127 -35 24 0 111 -31 124 -44 7 -7 -170 0
-216 9 -9 1 -52 9 -96 16 -51 8 -87 19 -100 31 -20 19 -20 19 4 39 31 25 35
25 157 -16z m1235 -6 c17 -17 19 -23 8 -30 -8 -5 -10 -9 -4 -9 5 0 4 -5 -2
-11 -6 -6 -35 -13 -64 -15 -30 -1 -81 -6 -114 -9 -133 -13 -161 -16 -195 -20
-19 -3 -42 0 -50 5 -23 16 10 36 73 44 29 4 102 20 162 35 138 35 160 36 186
10z m-804 -114 c9 -3 12 -31 10 -101 -2 -95 -3 -98 -27 -103 -22 -6 -121 -6
-227 -2 l-33 1 0 104 c0 92 2 105 18 108 24 5 244 -1 259 -7z m-370 -225 c83
-26 101 -35 96 -48 -9 -26 -51 -62 -153 -131 -52 -35 -115 -80 -139 -99 l-43
-35 -147 50 c-87 30 -147 56 -149 64 -1 8 12 24 30 37 18 12 58 45 88 73 98
91 155 121 240 132 27 3 29 3 177 -43z m1309 -37 c132 -118 154 -140 154 -156
0 -22 -14 -28 -160 -76 l-124 -40 -32 24 c-18 14 -38 30 -46 38 -7 7 -51 45
-98 86 -47 40 -88 78 -92 85 -12 21 7 35 58 45 118 24 249 53 253 57 8 7 16 2
87 -63z m-1261 -334 c39 -5 106 -12 150 -15 105 -7 109 -7 133 -24 21 -15 21
-15 3 -70 -29 -81 -42 -86 -176 -65 -16 2 -64 7 -105 10 -159 13 -201 23 -230
50 -46 44 -20 86 66 109 61 16 72 16 159 5z m1606 -181 c16 -25 -17 -73 -71
-105 -53 -32 -151 -69 -206 -78 -16 -3 -62 -11 -101 -19 -40 -7 -73 -10 -73
-7 0 3 28 15 63 25 149 47 248 113 261 176 8 40 40 52 86 33 19 -7 37 -19 41
-25z m-2211 -15 c0 -15 75 -88 111 -109 54 -31 95 -46 126 -46 18 0 36 -5 40
-11 12 -20 -148 -1 -222 28 -138 52 -175 73 -175 97 0 32 11 45 50 61 36 16
70 6 70 -20z m730 -89 c120 -9 130 -10 138 -18 4 -4 -29 -5 -73 -2 -44 4 -109
9 -145 12 -141 10 -184 15 -190 21 -5 5 82 1 270 -13z m987 -110 c-3 -3 -12
-4 -19 -1 -8 3 -5 6 6 6 11 1 17 -2 13 -5z m-1107 -38 c14 -3 63 -7 110 -11
120 -8 149 -15 161 -37 24 -46 -20 -95 -74 -83 -12 2 -51 7 -87 9 -259 19
-351 31 -361 48 -13 20 -11 62 4 77 9 9 40 11 117 6 58 -3 116 -7 130 -9z"/>
</g>
</svg>
